# xmcd CD database file
#
# Track frame offsets:
#	150
#	57032
#	82964
#	129180
#	136830
#	201358
#
# Disc length: 2894 seconds
#
# Revision: 0
# Processed by: cddbd v1.5.2PL0 Copyright (c) Steve Scherf et al.
# Submitted via: CDex 1.70beta3
#
DISCID=460b4c06
DTITLE=JOE ZAWINUL - 75th disc2
DYEAR=2008
DGENRE=Jazz
TTITLE0=FAST CITY - TWO LINES
TTITLE1=CLARIO
TTITLE2=BADIA - BOOGIE WOOGIE WALTZ
TTITLE3=HAPPY BIRTHDAY
TTITLE4=IN A SILENT WAY
TTITLE5=HYMN
EXTD=YEAR: 2008
EXTT0=
EXTT1=
EXTT2=
EXTT3=
EXTT4=
EXTT5=
PLAYORDER=
